<svg version="1.0" xmlns="http://www.w3.org/2000/svg"
 width="422.000000pt" height="338.000000pt" viewBox="0 0 422.000000 338.000000"
 preserveAspectRatio="xMidYMid meet">

<g transform="translate(0.000000,338.000000) scale(0.100000,-0.100000)"
fill="#000000" stroke="none">
<path d="M673 1960 c-17 -6 -43 -23 -56 -40 -31 -36 -42 -131 -34 -293 5 -122
17 -148 78 -180 39 -20 91 -17 119 8 21 19 30 19 30 0 0 -11 12 -15 45 -15
l45 0 0 140 0 140 -80 0 -80 0 0 -40 c0 -29 4 -40 15 -40 11 0 15 -12 15 -47
0 -56 -11 -78 -34 -70 -15 6 -16 27 -14 179 3 155 5 173 21 176 14 3 17 -5 17
-52 l0 -56 71 0 72 0 -7 58 c-7 64 -29 100 -72 121 -36 18 -109 23 -151 11z"/>
<path d="M1686 1821 c-143 -143 -147 -148 -135 -174 9 -21 9 -33 -1 -58 -13
-31 -13 -32 48 -91 60 -58 61 -59 86 -43 23 15 28 15 55 2 l29 -14 148 148
c117 117 146 151 136 161 -15 15 -16 60 0 76 10 10 -2 26 -51 76 -63 64 -63
64 -91 48 -25 -15 -30 -15 -52 0 -25 16 -25 16 -172 -131z m225 98 c24 8 31 5
65 -30 35 -36 38 -42 38 -99 l0 -61 -124 -124 c-119 -119 -124 -123 -152 -113
-20 7 -37 7 -53 0 -20 -9 -27 -5 -61 29 -36 36 -39 44 -40 97 l0 57 124 127
c116 117 127 126 150 117 16 -6 35 -6 53 0z"/>
<path d="M1724 1779 l-108 -108 0 -51 c-1 -69 27 -97 100 -97 l52 -1 107 108
108 108 0 51 c0 74 -26 100 -98 99 l-53 -1 -108 -108z m186 31 c0 -11 5 -20
10 -20 6 0 10 -4 10 -10 0 -5 -7 -10 -15 -10 -8 0 -15 -7 -15 -16 0 -9 -5 -13
-12 -10 -7 3 -21 9 -30 12 -27 10 -18 58 12 65 39 10 40 10 40 -11z m-76 -90
c11 -24 12 -30 1 -30 -7 0 -15 -6 -18 -14 -10 -26 -54 3 -54 35 0 22 6 29 26
32 14 2 27 5 28 6 1 0 8 -12 17 -29z m-93 -121 c-17 -16 -23 -17 -46 -5 -16 9
-22 17 -15 21 6 4 8 16 4 27 -5 17 -3 19 14 14 11 -4 23 -2 27 4 4 7 13 1 21
-16 13 -25 13 -29 -5 -45z"/>
<path d="M3404 1959 c-52 -15 -68 -42 -72 -123 -4 -66 -2 -75 23 -104 15 -18
53 -50 85 -73 41 -29 61 -50 65 -70 9 -39 -2 -69 -26 -69 -16 0 -19 7 -19 55
l0 55 -65 0 -65 0 0 -45 c0 -91 38 -136 127 -151 50 -8 119 11 149 41 21 21
24 33 24 97 0 40 -6 84 -13 98 -7 14 -44 48 -82 77 -78 59 -89 74 -81 109 10
40 40 27 44 -19 l3 -37 60 0 59 0 0 49 c0 63 -25 95 -84 110 -52 13 -88 13
-132 0z"/>
<path d="M950 1700 l0 -260 115 0 115 0 0 50 0 50 -50 0 -50 0 0 60 0 60 45 0
45 0 0 50 0 50 -45 0 -45 0 0 50 0 50 45 0 45 0 0 50 0 50 -110 0 -110 0 0
-260z"/>
<path d="M1190 1910 l0 -50 40 0 40 0 0 -210 0 -210 70 0 70 0 0 210 0 210 40
0 40 0 0 50 0 50 -150 0 -150 0 0 -50z"/>
<path d="M2160 1700 l0 -260 65 0 65 0 0 110 0 110 45 0 45 0 0 50 0 50 -45 0
-45 0 0 50 0 50 50 0 50 0 0 50 0 50 -115 0 -115 0 0 -260z"/>
<path d="M2420 1700 l0 -260 65 0 65 0 0 260 0 260 -65 0 -65 0 0 -260z"/>
<path d="M2610 1700 l0 -260 105 0 105 0 0 50 0 50 -40 0 -40 0 0 210 0 210
-65 0 -65 0 0 -260z"/>
<path d="M2860 1700 l0 -260 60 0 60 0 2 163 3 162 20 -160 20 -160 41 -3 c48
-3 43 -16 66 185 11 101 14 112 20 78 4 -22 7 -91 7 -152 l1 -113 60 0 60 0 0
260 0 260 -90 0 c-65 0 -90 -3 -90 -12 -1 -27 -28 -210 -33 -214 -2 -3 -7 19
-11 48 -4 29 -12 81 -17 116 l-11 62 -84 0 -84 0 0 -260z"/>
</g>
</svg>
